<svg xmlns="http://www.w3.org/2000/svg" xml:space="preserve" viewbox="0 0 119.395 122.879">
	<path fill="currentColor" d="M113.875 65.43c.105-1.039.18-2.088.221-3.154h-5.076a37.002 37.002 0 0 0-17.719-4.487 36.99 36.99 0 0 0-17.783 4.524H62.313V71.7a37.11 37.11 0 0 0-5.229 8.725V62.313H26.93c.322 8.271 3.116 16.473 8.272 24.637h19.799a37.34 37.34 0 0 0-.764 5.229H38.855c4.691 6.16 10.779 12.32 18.228 18.408v-1.1a37.144 37.144 0 0 0 6.133 9.811 62.18 62.18 0 0 1-3.519.098c-4.118 0-8.094-.393-11.997-1.182a55.495 55.495 0 0 1-11.137-3.438.263.263 0 0 1-.143-.072 64.53 64.53 0 0 1-10.171-5.514 57.137 57.137 0 0 1-8.81-7.234 55.039 55.039 0 0 1-7.234-8.811c-2.148-3.186-3.975-6.588-5.515-10.17-1.576-3.652-2.722-7.412-3.51-11.281C.394 67.826 0 63.816 0 59.698s.394-8.094 1.182-11.997A55.624 55.624 0 0 1 4.62 36.564a.27.27 0 0 1 .072-.143c1.54-3.617 3.402-6.983 5.515-10.171a57.079 57.079 0 0 1 7.234-8.81 55.075 55.075 0 0 1 8.81-7.234c3.188-2.149 6.59-3.975 10.171-5.515 3.653-1.576 7.413-2.722 11.28-3.51C51.568.394 55.58 0 59.698 0c4.119 0 8.093.394 11.998 1.182 3.83.752 7.52 1.898 11.137 3.438.035 0 .107.036.143.072a64.665 64.665 0 0 1 10.172 5.515 57.118 57.118 0 0 1 8.809 7.234 55.022 55.022 0 0 1 7.234 8.81c2.148 3.188 3.975 6.589 5.514 10.171 1.576 3.652 2.723 7.413 3.51 11.28.789 3.868 1.182 7.879 1.182 11.997 0 3.423-.271 6.75-.816 10.017a37.407 37.407 0 0 0-4.706-4.286zm-22.574 1.599c15.42 0 27.926 12.504 27.926 27.926 0 15.42-12.506 27.924-27.926 27.924s-27.926-12.504-27.926-27.924c0-15.422 12.506-27.926 27.926-27.926zm16.845 16.838-27.932 27.934a20.068 20.068 0 0 0 11.086 3.32c11.135 0 20.166-9.031 20.166-20.166 0-4.096-1.223-7.904-3.32-11.086v-.002zm-33.691 22.172 27.932-27.932a20.063 20.063 0 0 0-11.086-3.32c-11.135 0-20.166 9.031-20.166 20.166 0 4.096 1.222 7.904 3.32 11.086zm-21.777 7.662c-8.451-7.09-15.22-14.252-20.233-21.523H15.936c1.576 2.15 3.331 4.154 5.229 6.053a52.356 52.356 0 0 0 8.022 6.59c2.865 1.934 5.98 3.617 9.347 5.049.036.037.072.037.107.072 3.258 1.361 6.625 2.436 10.134 3.115 1.29.25 2.614.465 3.939.645h-.036v-.001zM12.499 86.949h16.616c-4.62-8.092-7.127-16.33-7.413-24.637H5.3c.144 2.863.465 5.621 1.003 8.344.716 3.545 1.755 6.947 3.187 10.242a55.607 55.607 0 0 0 3.009 6.051zM5.3 57.083h16.509c.608-8.165 3.331-16.366 8.165-24.638H12.499a56.171 56.171 0 0 0-3.009 6.052c-.036.036-.036.072-.071.107-1.361 3.259-2.436 6.625-3.116 10.135-.538 2.722-.896 5.479-1.003 8.344zm10.6-29.867h17.44c4.978-7.162 11.531-14.36 19.696-21.594a54.04 54.04 0 0 0-4.297.68c-3.545.716-6.948 1.754-10.242 3.187a58.43 58.43 0 0 0-9.347 5.05 52.35 52.35 0 0 0-8.022 6.589c-1.898 1.898-3.652 3.903-5.229 6.052v.036h.001zM66.359 5.623c8.199 7.233 14.754 14.432 19.695 21.594h17.441c-1.576-2.148-3.332-4.154-5.229-6.052a52.347 52.347 0 0 0-8.023-6.589c-2.865-1.934-5.98-3.617-9.346-5.049-.037-.036-.072-.036-.107-.072-3.26-1.361-6.625-2.435-10.135-3.115a59.342 59.342 0 0 0-4.297-.681v-.036h.001zm40.537 26.822H89.422c4.834 8.272 7.555 16.473 8.164 24.638h16.51c-.145-2.865-.467-5.623-1.004-8.344-.715-3.545-1.754-6.947-3.186-10.242a55.81 55.81 0 0 0-3.01-6.052zM62.313 9.025v18.191h17.332C75.096 21.2 69.33 15.148 62.313 9.025zm0 23.42v24.638h30.045c-.68-8.094-3.688-16.294-9.061-24.638H62.313zm-5.23 24.638V32.445H36.098c-5.372 8.344-8.379 16.544-9.06 24.638h30.045zm0-29.867V9.025C50.064 15.148 44.299 21.2 39.75 27.216h17.333z"/>
</svg>